<mxfile host="app.diagrams.net" agent="Mozilla/5.0 (Macintosh; Intel Mac OS X 10_15_7) AppleWebKit/537.36 (KHTML, like Gecko) Chrome/133.0.0.0 Safari/537.36" version="26.0.10">
  <diagram id="R2lEEEUBdFMjLlhIrx00" name="Page-1">
    <mxGraphModel dx="2288" dy="818" grid="1" gridSize="10" guides="1" tooltips="1" connect="1" arrows="1" fold="1" page="1" pageScale="1" pageWidth="827" pageHeight="1169" background="none" math="0" shadow="0" extFonts="Permanent Marker^https://fonts.googleapis.com/css?family=Permanent+Marker">
      <root>
        <mxCell id="0" />
        <mxCell id="1" parent="0" />
        <mxCell id="C-vyLk0tnHw3VtMMgP7b-2" value="Movie" style="shape=table;startSize=30;container=1;collapsible=1;childLayout=tableLayout;fixedRows=1;rowLines=0;fontStyle=1;align=center;resizeLast=1;labelBackgroundColor=none;fillColor=#F2CC8F;strokeColor=#E07A5F;fontColor=#393C56;rounded=0;" parent="1" vertex="1">
          <mxGeometry x="290" y="390" width="250" height="320" as="geometry" />
        </mxCell>
        <mxCell id="Cwrk3HHggUScsCenRlc8-2" value="" style="shape=tableRow;horizontal=0;startSize=0;swimlaneHead=0;swimlaneBody=0;fillColor=none;collapsible=0;dropTarget=0;points=[[0,0.5],[1,0.5]];portConstraint=eastwest;top=0;left=0;right=0;bottom=0;labelBackgroundColor=none;strokeColor=#E07A5F;fontColor=#393C56;rounded=0;" parent="C-vyLk0tnHw3VtMMgP7b-2" vertex="1">
          <mxGeometry y="30" width="250" height="290" as="geometry" />
        </mxCell>
        <mxCell id="Cwrk3HHggUScsCenRlc8-3" value="" style="shape=partialRectangle;connectable=0;fillColor=none;top=0;left=0;bottom=0;right=0;editable=1;overflow=hidden;labelBackgroundColor=none;strokeColor=#E07A5F;fontColor=#393C56;rounded=0;" parent="Cwrk3HHggUScsCenRlc8-2" vertex="1">
          <mxGeometry width="39" height="290" as="geometry">
            <mxRectangle width="39" height="290" as="alternateBounds" />
          </mxGeometry>
        </mxCell>
        <mxCell id="Cwrk3HHggUScsCenRlc8-4" value="movie_id varchar(12)&#xa;&#xa;original_title varchar(255)&#xa;&#xa;title varchar(255)&#xa;&#xa;type varchar(255)&#xa;&#xa;description varchar(2047)&#xa;&#xa;runtime int&#xa;&#xa;startYear int&#xa;&#xa;endYear int&#xa;&#xa;wikiExtractÂ  varchar(2047)&#xa;&#xa;wikiThumbnail varchar(2047)&#xa;" style="shape=partialRectangle;connectable=0;fillColor=none;top=0;left=0;bottom=0;right=0;align=left;spacingLeft=6;overflow=hidden;verticalAlign=top;labelBackgroundColor=none;strokeColor=#E07A5F;fontColor=#393C56;rounded=0;" parent="Cwrk3HHggUScsCenRlc8-2" vertex="1">
          <mxGeometry x="39" width="211" height="290" as="geometry">
            <mxRectangle width="211" height="290" as="alternateBounds" />
          </mxGeometry>
        </mxCell>
        <mxCell id="Cwrk3HHggUScsCenRlc8-6" value="Actor" style="shape=table;startSize=30;container=1;collapsible=1;childLayout=tableLayout;fixedRows=1;rowLines=0;fontStyle=1;align=center;resizeLast=1;html=1;labelBackgroundColor=none;fillColor=#F2CC8F;strokeColor=#E07A5F;fontColor=#393C56;rounded=0;" parent="1" vertex="1">
          <mxGeometry x="-140" y="140" width="180" height="150" as="geometry" />
        </mxCell>
        <mxCell id="Cwrk3HHggUScsCenRlc8-10" value="" style="shape=tableRow;horizontal=0;startSize=0;swimlaneHead=0;swimlaneBody=0;fillColor=none;collapsible=0;dropTarget=0;points=[[0,0.5],[1,0.5]];portConstraint=eastwest;top=0;left=0;right=0;bottom=0;labelBackgroundColor=none;strokeColor=#E07A5F;fontColor=#393C56;rounded=0;" parent="Cwrk3HHggUScsCenRlc8-6" vertex="1">
          <mxGeometry y="30" width="180" height="60" as="geometry" />
        </mxCell>
        <mxCell id="Cwrk3HHggUScsCenRlc8-11" value="" style="shape=partialRectangle;connectable=0;fillColor=none;top=0;left=0;bottom=0;right=0;editable=1;overflow=hidden;whiteSpace=wrap;html=1;labelBackgroundColor=none;strokeColor=#E07A5F;fontColor=#393C56;rounded=0;" parent="Cwrk3HHggUScsCenRlc8-10" vertex="1">
          <mxGeometry width="30" height="60" as="geometry">
            <mxRectangle width="30" height="60" as="alternateBounds" />
          </mxGeometry>
        </mxCell>
        <mxCell id="Cwrk3HHggUScsCenRlc8-12" value="&lt;div&gt;actor_id varchar(12)&lt;/div&gt;&lt;div&gt;&lt;br&gt;&lt;/div&gt;name varchar(255)" style="shape=partialRectangle;connectable=0;fillColor=none;top=0;left=0;bottom=0;right=0;align=left;spacingLeft=6;overflow=hidden;whiteSpace=wrap;html=1;labelBackgroundColor=none;strokeColor=#E07A5F;fontColor=#393C56;rounded=0;" parent="Cwrk3HHggUScsCenRlc8-10" vertex="1">
          <mxGeometry x="30" width="150" height="60" as="geometry">
            <mxRectangle width="150" height="60" as="alternateBounds" />
          </mxGeometry>
        </mxCell>
        <mxCell id="Cwrk3HHggUScsCenRlc8-13" value="" style="shape=tableRow;horizontal=0;startSize=0;swimlaneHead=0;swimlaneBody=0;fillColor=none;collapsible=0;dropTarget=0;points=[[0,0.5],[1,0.5]];portConstraint=eastwest;top=0;left=0;right=0;bottom=0;labelBackgroundColor=none;strokeColor=#E07A5F;fontColor=#393C56;rounded=0;" parent="Cwrk3HHggUScsCenRlc8-6" vertex="1">
          <mxGeometry y="90" width="180" height="30" as="geometry" />
        </mxCell>
        <mxCell id="Cwrk3HHggUScsCenRlc8-14" value="" style="shape=partialRectangle;connectable=0;fillColor=none;top=0;left=0;bottom=0;right=0;editable=1;overflow=hidden;whiteSpace=wrap;html=1;labelBackgroundColor=none;strokeColor=#E07A5F;fontColor=#393C56;rounded=0;" parent="Cwrk3HHggUScsCenRlc8-13" vertex="1">
          <mxGeometry width="30" height="30" as="geometry">
            <mxRectangle width="30" height="30" as="alternateBounds" />
          </mxGeometry>
        </mxCell>
        <mxCell id="Cwrk3HHggUScsCenRlc8-15" value="birth_year int" style="shape=partialRectangle;connectable=0;fillColor=none;top=0;left=0;bottom=0;right=0;align=left;spacingLeft=6;overflow=hidden;whiteSpace=wrap;html=1;labelBackgroundColor=none;strokeColor=#E07A5F;fontColor=#393C56;rounded=0;" parent="Cwrk3HHggUScsCenRlc8-13" vertex="1">
          <mxGeometry x="30" width="150" height="30" as="geometry">
            <mxRectangle width="150" height="30" as="alternateBounds" />
          </mxGeometry>
        </mxCell>
        <mxCell id="Cwrk3HHggUScsCenRlc8-16" value="" style="shape=tableRow;horizontal=0;startSize=0;swimlaneHead=0;swimlaneBody=0;fillColor=none;collapsible=0;dropTarget=0;points=[[0,0.5],[1,0.5]];portConstraint=eastwest;top=0;left=0;right=0;bottom=0;labelBackgroundColor=none;strokeColor=#E07A5F;fontColor=#393C56;rounded=0;" parent="Cwrk3HHggUScsCenRlc8-6" vertex="1">
          <mxGeometry y="120" width="180" height="30" as="geometry" />
        </mxCell>
        <mxCell id="Cwrk3HHggUScsCenRlc8-17" value="" style="shape=partialRectangle;connectable=0;fillColor=none;top=0;left=0;bottom=0;right=0;editable=1;overflow=hidden;whiteSpace=wrap;html=1;labelBackgroundColor=none;strokeColor=#E07A5F;fontColor=#393C56;rounded=0;" parent="Cwrk3HHggUScsCenRlc8-16" vertex="1">
          <mxGeometry width="30" height="30" as="geometry">
            <mxRectangle width="30" height="30" as="alternateBounds" />
          </mxGeometry>
        </mxCell>
        <mxCell id="Cwrk3HHggUScsCenRlc8-18" value="death_year int" style="shape=partialRectangle;connectable=0;fillColor=none;top=0;left=0;bottom=0;right=0;align=left;spacingLeft=6;overflow=hidden;whiteSpace=wrap;html=1;labelBackgroundColor=none;strokeColor=#E07A5F;fontColor=#393C56;rounded=0;" parent="Cwrk3HHggUScsCenRlc8-16" vertex="1">
          <mxGeometry x="30" width="150" height="30" as="geometry">
            <mxRectangle width="150" height="30" as="alternateBounds" />
          </mxGeometry>
        </mxCell>
        <mxCell id="Cwrk3HHggUScsCenRlc8-19" value="HasActedIn" style="shape=table;startSize=30;container=1;collapsible=1;childLayout=tableLayout;fixedRows=1;rowLines=0;fontStyle=1;align=center;resizeLast=1;html=1;whiteSpace=wrap;labelBackgroundColor=none;fillColor=#F2CC8F;strokeColor=#E07A5F;fontColor=#393C56;rounded=0;" parent="1" vertex="1">
          <mxGeometry x="-80" y="400" width="220" height="90" as="geometry" />
        </mxCell>
        <mxCell id="Cwrk3HHggUScsCenRlc8-20" value="" style="shape=tableRow;horizontal=0;startSize=0;swimlaneHead=0;swimlaneBody=0;fillColor=none;collapsible=0;dropTarget=0;points=[[0,0.5],[1,0.5]];portConstraint=eastwest;top=0;left=0;right=0;bottom=0;html=1;labelBackgroundColor=none;strokeColor=#E07A5F;fontColor=#393C56;rounded=0;" parent="Cwrk3HHggUScsCenRlc8-19" vertex="1">
          <mxGeometry y="30" width="220" height="30" as="geometry" />
        </mxCell>
        <mxCell id="Cwrk3HHggUScsCenRlc8-21" value="" style="shape=partialRectangle;connectable=0;fillColor=none;top=0;left=0;bottom=0;right=0;fontStyle=1;overflow=hidden;html=1;whiteSpace=wrap;labelBackgroundColor=none;strokeColor=#E07A5F;fontColor=#393C56;rounded=0;" parent="Cwrk3HHggUScsCenRlc8-20" vertex="1">
          <mxGeometry width="60" height="30" as="geometry">
            <mxRectangle width="60" height="30" as="alternateBounds" />
          </mxGeometry>
        </mxCell>
        <mxCell id="Cwrk3HHggUScsCenRlc8-22" value="&lt;span style=&quot;font-weight: normal;&quot;&gt;actor_id varchar(12)&lt;/span&gt;" style="shape=partialRectangle;connectable=0;fillColor=none;top=0;left=0;bottom=0;right=0;align=left;spacingLeft=6;fontStyle=1;overflow=hidden;html=1;whiteSpace=wrap;labelBackgroundColor=none;strokeColor=#E07A5F;fontColor=#393C56;rounded=0;" parent="Cwrk3HHggUScsCenRlc8-20" vertex="1">
          <mxGeometry x="60" width="160" height="30" as="geometry">
            <mxRectangle width="160" height="30" as="alternateBounds" />
          </mxGeometry>
        </mxCell>
        <mxCell id="Cwrk3HHggUScsCenRlc8-23" value="" style="shape=tableRow;horizontal=0;startSize=0;swimlaneHead=0;swimlaneBody=0;fillColor=none;collapsible=0;dropTarget=0;points=[[0,0.5],[1,0.5]];portConstraint=eastwest;top=0;left=0;right=0;bottom=1;html=1;labelBackgroundColor=none;strokeColor=#E07A5F;fontColor=#393C56;rounded=0;" parent="Cwrk3HHggUScsCenRlc8-19" vertex="1">
          <mxGeometry y="60" width="220" height="30" as="geometry" />
        </mxCell>
        <mxCell id="Cwrk3HHggUScsCenRlc8-24" value="" style="shape=partialRectangle;connectable=0;fillColor=none;top=0;left=0;bottom=0;right=0;fontStyle=1;overflow=hidden;html=1;whiteSpace=wrap;labelBackgroundColor=none;strokeColor=#E07A5F;fontColor=#393C56;rounded=0;" parent="Cwrk3HHggUScsCenRlc8-23" vertex="1">
          <mxGeometry width="60" height="30" as="geometry">
            <mxRectangle width="60" height="30" as="alternateBounds" />
          </mxGeometry>
        </mxCell>
        <mxCell id="Cwrk3HHggUScsCenRlc8-25" value="&lt;span style=&quot;font-weight: normal;&quot;&gt;movie_id varchar(12)&lt;/span&gt;" style="shape=partialRectangle;connectable=0;fillColor=none;top=0;left=0;bottom=0;right=0;align=left;spacingLeft=6;fontStyle=1;overflow=hidden;html=1;whiteSpace=wrap;labelBackgroundColor=none;strokeColor=#E07A5F;fontColor=#393C56;rounded=0;" parent="Cwrk3HHggUScsCenRlc8-23" vertex="1">
          <mxGeometry x="60" width="160" height="30" as="geometry">
            <mxRectangle width="160" height="30" as="alternateBounds" />
          </mxGeometry>
        </mxCell>
        <mxCell id="Cwrk3HHggUScsCenRlc8-32" value="Director" style="shape=table;startSize=30;container=1;collapsible=1;childLayout=tableLayout;fixedRows=1;rowLines=0;fontStyle=1;align=center;resizeLast=1;html=1;labelBackgroundColor=none;fillColor=#F2CC8F;strokeColor=#E07A5F;fontColor=#393C56;rounded=0;" parent="1" vertex="1">
          <mxGeometry x="860" y="100" width="190" height="150" as="geometry" />
        </mxCell>
        <mxCell id="Cwrk3HHggUScsCenRlc8-36" value="" style="shape=tableRow;horizontal=0;startSize=0;swimlaneHead=0;swimlaneBody=0;fillColor=none;collapsible=0;dropTarget=0;points=[[0,0.5],[1,0.5]];portConstraint=eastwest;top=0;left=0;right=0;bottom=0;labelBackgroundColor=none;strokeColor=#E07A5F;fontColor=#393C56;rounded=0;" parent="Cwrk3HHggUScsCenRlc8-32" vertex="1">
          <mxGeometry y="30" width="190" height="60" as="geometry" />
        </mxCell>
        <mxCell id="Cwrk3HHggUScsCenRlc8-37" value="" style="shape=partialRectangle;connectable=0;fillColor=none;top=0;left=0;bottom=0;right=0;editable=1;overflow=hidden;whiteSpace=wrap;html=1;labelBackgroundColor=none;strokeColor=#E07A5F;fontColor=#393C56;rounded=0;" parent="Cwrk3HHggUScsCenRlc8-36" vertex="1">
          <mxGeometry width="30" height="60" as="geometry">
            <mxRectangle width="30" height="60" as="alternateBounds" />
          </mxGeometry>
        </mxCell>
        <mxCell id="Cwrk3HHggUScsCenRlc8-38" value="&lt;div&gt;director_id varchar(12)&lt;/div&gt;&lt;div&gt;&lt;br&gt;&lt;/div&gt;name varchar(255)" style="shape=partialRectangle;connectable=0;fillColor=none;top=0;left=0;bottom=0;right=0;align=left;spacingLeft=6;overflow=hidden;whiteSpace=wrap;html=1;labelBackgroundColor=none;strokeColor=#E07A5F;fontColor=#393C56;rounded=0;" parent="Cwrk3HHggUScsCenRlc8-36" vertex="1">
          <mxGeometry x="30" width="160" height="60" as="geometry">
            <mxRectangle width="160" height="60" as="alternateBounds" />
          </mxGeometry>
        </mxCell>
        <mxCell id="Cwrk3HHggUScsCenRlc8-39" value="" style="shape=tableRow;horizontal=0;startSize=0;swimlaneHead=0;swimlaneBody=0;fillColor=none;collapsible=0;dropTarget=0;points=[[0,0.5],[1,0.5]];portConstraint=eastwest;top=0;left=0;right=0;bottom=0;labelBackgroundColor=none;strokeColor=#E07A5F;fontColor=#393C56;rounded=0;" parent="Cwrk3HHggUScsCenRlc8-32" vertex="1">
          <mxGeometry y="90" width="190" height="30" as="geometry" />
        </mxCell>
        <mxCell id="Cwrk3HHggUScsCenRlc8-40" value="" style="shape=partialRectangle;connectable=0;fillColor=none;top=0;left=0;bottom=0;right=0;editable=1;overflow=hidden;whiteSpace=wrap;html=1;labelBackgroundColor=none;strokeColor=#E07A5F;fontColor=#393C56;rounded=0;" parent="Cwrk3HHggUScsCenRlc8-39" vertex="1">
          <mxGeometry width="30" height="30" as="geometry">
            <mxRectangle width="30" height="30" as="alternateBounds" />
          </mxGeometry>
        </mxCell>
        <mxCell id="Cwrk3HHggUScsCenRlc8-41" value="birth_year int" style="shape=partialRectangle;connectable=0;fillColor=none;top=0;left=0;bottom=0;right=0;align=left;spacingLeft=6;overflow=hidden;whiteSpace=wrap;html=1;labelBackgroundColor=none;strokeColor=#E07A5F;fontColor=#393C56;rounded=0;" parent="Cwrk3HHggUScsCenRlc8-39" vertex="1">
          <mxGeometry x="30" width="160" height="30" as="geometry">
            <mxRectangle width="160" height="30" as="alternateBounds" />
          </mxGeometry>
        </mxCell>
        <mxCell id="Cwrk3HHggUScsCenRlc8-42" value="" style="shape=tableRow;horizontal=0;startSize=0;swimlaneHead=0;swimlaneBody=0;fillColor=none;collapsible=0;dropTarget=0;points=[[0,0.5],[1,0.5]];portConstraint=eastwest;top=0;left=0;right=0;bottom=0;labelBackgroundColor=none;strokeColor=#E07A5F;fontColor=#393C56;rounded=0;" parent="Cwrk3HHggUScsCenRlc8-32" vertex="1">
          <mxGeometry y="120" width="190" height="30" as="geometry" />
        </mxCell>
        <mxCell id="Cwrk3HHggUScsCenRlc8-43" value="" style="shape=partialRectangle;connectable=0;fillColor=none;top=0;left=0;bottom=0;right=0;editable=1;overflow=hidden;whiteSpace=wrap;html=1;labelBackgroundColor=none;strokeColor=#E07A5F;fontColor=#393C56;rounded=0;" parent="Cwrk3HHggUScsCenRlc8-42" vertex="1">
          <mxGeometry width="30" height="30" as="geometry">
            <mxRectangle width="30" height="30" as="alternateBounds" />
          </mxGeometry>
        </mxCell>
        <mxCell id="Cwrk3HHggUScsCenRlc8-44" value="death_year int" style="shape=partialRectangle;connectable=0;fillColor=none;top=0;left=0;bottom=0;right=0;align=left;spacingLeft=6;overflow=hidden;whiteSpace=wrap;html=1;labelBackgroundColor=none;strokeColor=#E07A5F;fontColor=#393C56;rounded=0;" parent="Cwrk3HHggUScsCenRlc8-42" vertex="1">
          <mxGeometry x="30" width="160" height="30" as="geometry">
            <mxRectangle width="160" height="30" as="alternateBounds" />
          </mxGeometry>
        </mxCell>
        <mxCell id="Cwrk3HHggUScsCenRlc8-58" value="HasDirected" style="shape=table;startSize=30;container=1;collapsible=1;childLayout=tableLayout;fixedRows=1;rowLines=0;fontStyle=1;align=center;resizeLast=1;html=1;whiteSpace=wrap;labelBackgroundColor=none;fillColor=#F2CC8F;strokeColor=#E07A5F;fontColor=#393C56;rounded=0;" parent="1" vertex="1">
          <mxGeometry x="710" y="420" width="230" height="90" as="geometry" />
        </mxCell>
        <mxCell id="Cwrk3HHggUScsCenRlc8-59" value="" style="shape=tableRow;horizontal=0;startSize=0;swimlaneHead=0;swimlaneBody=0;fillColor=none;collapsible=0;dropTarget=0;points=[[0,0.5],[1,0.5]];portConstraint=eastwest;top=0;left=0;right=0;bottom=0;html=1;labelBackgroundColor=none;strokeColor=#E07A5F;fontColor=#393C56;rounded=0;" parent="Cwrk3HHggUScsCenRlc8-58" vertex="1">
          <mxGeometry y="30" width="230" height="30" as="geometry" />
        </mxCell>
        <mxCell id="Cwrk3HHggUScsCenRlc8-60" value="" style="shape=partialRectangle;connectable=0;fillColor=none;top=0;left=0;bottom=0;right=0;fontStyle=1;overflow=hidden;html=1;whiteSpace=wrap;labelBackgroundColor=none;strokeColor=#E07A5F;fontColor=#393C56;rounded=0;" parent="Cwrk3HHggUScsCenRlc8-59" vertex="1">
          <mxGeometry width="60" height="30" as="geometry">
            <mxRectangle width="60" height="30" as="alternateBounds" />
          </mxGeometry>
        </mxCell>
        <mxCell id="Cwrk3HHggUScsCenRlc8-61" value="&lt;span style=&quot;font-weight: normal;&quot;&gt;director_id varchar(12)&lt;/span&gt;" style="shape=partialRectangle;connectable=0;fillColor=none;top=0;left=0;bottom=0;right=0;align=left;spacingLeft=6;fontStyle=1;overflow=hidden;html=1;whiteSpace=wrap;labelBackgroundColor=none;strokeColor=#E07A5F;fontColor=#393C56;rounded=0;" parent="Cwrk3HHggUScsCenRlc8-59" vertex="1">
          <mxGeometry x="60" width="170" height="30" as="geometry">
            <mxRectangle width="170" height="30" as="alternateBounds" />
          </mxGeometry>
        </mxCell>
        <mxCell id="Cwrk3HHggUScsCenRlc8-62" value="" style="shape=tableRow;horizontal=0;startSize=0;swimlaneHead=0;swimlaneBody=0;fillColor=none;collapsible=0;dropTarget=0;points=[[0,0.5],[1,0.5]];portConstraint=eastwest;top=0;left=0;right=0;bottom=1;html=1;labelBackgroundColor=none;strokeColor=#E07A5F;fontColor=#393C56;rounded=0;" parent="Cwrk3HHggUScsCenRlc8-58" vertex="1">
          <mxGeometry y="60" width="230" height="30" as="geometry" />
        </mxCell>
        <mxCell id="Cwrk3HHggUScsCenRlc8-63" value="" style="shape=partialRectangle;connectable=0;fillColor=none;top=0;left=0;bottom=0;right=0;fontStyle=1;overflow=hidden;html=1;whiteSpace=wrap;labelBackgroundColor=none;strokeColor=#E07A5F;fontColor=#393C56;rounded=0;" parent="Cwrk3HHggUScsCenRlc8-62" vertex="1">
          <mxGeometry width="60" height="30" as="geometry">
            <mxRectangle width="60" height="30" as="alternateBounds" />
          </mxGeometry>
        </mxCell>
        <mxCell id="Cwrk3HHggUScsCenRlc8-64" value="&lt;span style=&quot;font-weight: normal;&quot;&gt;movie_id varchar(12)&lt;/span&gt;" style="shape=partialRectangle;connectable=0;fillColor=none;top=0;left=0;bottom=0;right=0;align=left;spacingLeft=6;fontStyle=1;overflow=hidden;html=1;whiteSpace=wrap;labelBackgroundColor=none;strokeColor=#E07A5F;fontColor=#393C56;rounded=0;" parent="Cwrk3HHggUScsCenRlc8-62" vertex="1">
          <mxGeometry x="60" width="170" height="30" as="geometry">
            <mxRectangle width="170" height="30" as="alternateBounds" />
          </mxGeometry>
        </mxCell>
        <mxCell id="Cwrk3HHggUScsCenRlc8-65" value="Genre" style="shape=table;startSize=30;container=1;collapsible=1;childLayout=tableLayout;fixedRows=1;rowLines=0;fontStyle=1;align=center;resizeLast=1;html=1;labelBackgroundColor=none;fillColor=#F2CC8F;strokeColor=#E07A5F;fontColor=#393C56;rounded=0;" parent="1" vertex="1">
          <mxGeometry x="-90" y="760" width="180" height="60" as="geometry" />
        </mxCell>
        <mxCell id="Cwrk3HHggUScsCenRlc8-66" value="" style="shape=tableRow;horizontal=0;startSize=0;swimlaneHead=0;swimlaneBody=0;fillColor=none;collapsible=0;dropTarget=0;points=[[0,0.5],[1,0.5]];portConstraint=eastwest;top=0;left=0;right=0;bottom=1;labelBackgroundColor=none;strokeColor=#E07A5F;fontColor=#393C56;rounded=0;" parent="Cwrk3HHggUScsCenRlc8-65" vertex="1">
          <mxGeometry y="30" width="180" height="30" as="geometry" />
        </mxCell>
        <mxCell id="Cwrk3HHggUScsCenRlc8-67" value="" style="shape=partialRectangle;connectable=0;fillColor=none;top=0;left=0;bottom=0;right=0;fontStyle=1;overflow=hidden;whiteSpace=wrap;html=1;labelBackgroundColor=none;strokeColor=#E07A5F;fontColor=#393C56;rounded=0;" parent="Cwrk3HHggUScsCenRlc8-66" vertex="1">
          <mxGeometry width="30" height="30" as="geometry">
            <mxRectangle width="30" height="30" as="alternateBounds" />
          </mxGeometry>
        </mxCell>
        <mxCell id="Cwrk3HHggUScsCenRlc8-68" value="&lt;span style=&quot;font-weight: normal;&quot;&gt;name varchar(255)&lt;/span&gt;" style="shape=partialRectangle;connectable=0;fillColor=none;top=0;left=0;bottom=0;right=0;align=left;spacingLeft=6;fontStyle=1;overflow=hidden;whiteSpace=wrap;html=1;labelBackgroundColor=none;strokeColor=#E07A5F;fontColor=#393C56;rounded=0;" parent="Cwrk3HHggUScsCenRlc8-66" vertex="1">
          <mxGeometry x="30" width="150" height="30" as="geometry">
            <mxRectangle width="150" height="30" as="alternateBounds" />
          </mxGeometry>
        </mxCell>
        <mxCell id="Cwrk3HHggUScsCenRlc8-78" value="IsOfGenre" style="shape=table;startSize=30;container=1;collapsible=1;childLayout=tableLayout;fixedRows=1;rowLines=0;fontStyle=1;align=center;resizeLast=1;html=1;whiteSpace=wrap;labelBackgroundColor=none;fillColor=#F2CC8F;strokeColor=#E07A5F;fontColor=#393C56;rounded=0;" parent="1" vertex="1">
          <mxGeometry x="-90" y="600" width="220" height="90" as="geometry" />
        </mxCell>
        <mxCell id="Cwrk3HHggUScsCenRlc8-79" value="" style="shape=tableRow;horizontal=0;startSize=0;swimlaneHead=0;swimlaneBody=0;fillColor=none;collapsible=0;dropTarget=0;points=[[0,0.5],[1,0.5]];portConstraint=eastwest;top=0;left=0;right=0;bottom=0;html=1;labelBackgroundColor=none;strokeColor=#E07A5F;fontColor=#393C56;rounded=0;" parent="Cwrk3HHggUScsCenRlc8-78" vertex="1">
          <mxGeometry y="30" width="220" height="30" as="geometry" />
        </mxCell>
        <mxCell id="Cwrk3HHggUScsCenRlc8-80" value="" style="shape=partialRectangle;connectable=0;fillColor=none;top=0;left=0;bottom=0;right=0;fontStyle=1;overflow=hidden;html=1;whiteSpace=wrap;labelBackgroundColor=none;strokeColor=#E07A5F;fontColor=#393C56;rounded=0;" parent="Cwrk3HHggUScsCenRlc8-79" vertex="1">
          <mxGeometry width="60" height="30" as="geometry">
            <mxRectangle width="60" height="30" as="alternateBounds" />
          </mxGeometry>
        </mxCell>
        <mxCell id="Cwrk3HHggUScsCenRlc8-81" value="&lt;span style=&quot;font-weight: normal;&quot;&gt;genre_name varchar(12)&lt;/span&gt;" style="shape=partialRectangle;connectable=0;fillColor=none;top=0;left=0;bottom=0;right=0;align=left;spacingLeft=6;fontStyle=1;overflow=hidden;html=1;whiteSpace=wrap;labelBackgroundColor=none;strokeColor=#E07A5F;fontColor=#393C56;rounded=0;" parent="Cwrk3HHggUScsCenRlc8-79" vertex="1">
          <mxGeometry x="60" width="160" height="30" as="geometry">
            <mxRectangle width="160" height="30" as="alternateBounds" />
          </mxGeometry>
        </mxCell>
        <mxCell id="Cwrk3HHggUScsCenRlc8-82" value="" style="shape=tableRow;horizontal=0;startSize=0;swimlaneHead=0;swimlaneBody=0;fillColor=none;collapsible=0;dropTarget=0;points=[[0,0.5],[1,0.5]];portConstraint=eastwest;top=0;left=0;right=0;bottom=1;html=1;labelBackgroundColor=none;strokeColor=#E07A5F;fontColor=#393C56;rounded=0;" parent="Cwrk3HHggUScsCenRlc8-78" vertex="1">
          <mxGeometry y="60" width="220" height="30" as="geometry" />
        </mxCell>
        <mxCell id="Cwrk3HHggUScsCenRlc8-83" value="" style="shape=partialRectangle;connectable=0;fillColor=none;top=0;left=0;bottom=0;right=0;fontStyle=1;overflow=hidden;html=1;whiteSpace=wrap;labelBackgroundColor=none;strokeColor=#E07A5F;fontColor=#393C56;rounded=0;" parent="Cwrk3HHggUScsCenRlc8-82" vertex="1">
          <mxGeometry width="60" height="30" as="geometry">
            <mxRectangle width="60" height="30" as="alternateBounds" />
          </mxGeometry>
        </mxCell>
        <mxCell id="Cwrk3HHggUScsCenRlc8-84" value="&lt;span style=&quot;font-weight: normal;&quot;&gt;movie_id varchar(12)&lt;/span&gt;" style="shape=partialRectangle;connectable=0;fillColor=none;top=0;left=0;bottom=0;right=0;align=left;spacingLeft=6;fontStyle=1;overflow=hidden;html=1;whiteSpace=wrap;labelBackgroundColor=none;strokeColor=#E07A5F;fontColor=#393C56;rounded=0;" parent="Cwrk3HHggUScsCenRlc8-82" vertex="1">
          <mxGeometry x="60" width="160" height="30" as="geometry">
            <mxRectangle width="160" height="30" as="alternateBounds" />
          </mxGeometry>
        </mxCell>
        <mxCell id="Cwrk3HHggUScsCenRlc8-89" value="StudioHasProduced" style="shape=table;startSize=30;container=1;collapsible=1;childLayout=tableLayout;fixedRows=1;rowLines=0;fontStyle=1;align=center;resizeLast=1;html=1;whiteSpace=wrap;labelBackgroundColor=none;fillColor=#F2CC8F;strokeColor=#E07A5F;fontColor=#393C56;rounded=0;" parent="1" vertex="1">
          <mxGeometry x="430" y="840" width="229.99999999999977" height="80" as="geometry" />
        </mxCell>
        <mxCell id="Cwrk3HHggUScsCenRlc8-90" value="" style="shape=tableRow;horizontal=0;startSize=0;swimlaneHead=0;swimlaneBody=0;fillColor=none;collapsible=0;dropTarget=0;points=[[0,0.5],[1,0.5]];portConstraint=eastwest;top=0;left=0;right=0;bottom=0;html=1;labelBackgroundColor=none;strokeColor=#E07A5F;fontColor=#393C56;rounded=0;" parent="Cwrk3HHggUScsCenRlc8-89" vertex="1">
          <mxGeometry y="30" width="229.99999999999977" height="20" as="geometry" />
        </mxCell>
        <mxCell id="Cwrk3HHggUScsCenRlc8-91" value="" style="shape=partialRectangle;connectable=0;fillColor=none;top=0;left=0;bottom=0;right=0;fontStyle=1;overflow=hidden;html=1;whiteSpace=wrap;labelBackgroundColor=none;strokeColor=#E07A5F;fontColor=#393C56;rounded=0;" parent="Cwrk3HHggUScsCenRlc8-90" vertex="1">
          <mxGeometry width="60" height="20" as="geometry">
            <mxRectangle width="60" height="20" as="alternateBounds" />
          </mxGeometry>
        </mxCell>
        <mxCell id="Cwrk3HHggUScsCenRlc8-92" value="&lt;span style=&quot;font-weight: normal;&quot;&gt;studio_name varchar(255)&lt;/span&gt;" style="shape=partialRectangle;connectable=0;fillColor=none;top=0;left=0;bottom=0;right=0;align=left;spacingLeft=6;fontStyle=1;overflow=hidden;html=1;whiteSpace=wrap;labelBackgroundColor=none;strokeColor=#E07A5F;fontColor=#393C56;rounded=0;" parent="Cwrk3HHggUScsCenRlc8-90" vertex="1">
          <mxGeometry x="60" width="169.99999999999977" height="20" as="geometry">
            <mxRectangle width="169.99999999999977" height="20" as="alternateBounds" />
          </mxGeometry>
        </mxCell>
        <mxCell id="Cwrk3HHggUScsCenRlc8-93" value="" style="shape=tableRow;horizontal=0;startSize=0;swimlaneHead=0;swimlaneBody=0;fillColor=none;collapsible=0;dropTarget=0;points=[[0,0.5],[1,0.5]];portConstraint=eastwest;top=0;left=0;right=0;bottom=1;html=1;labelBackgroundColor=none;strokeColor=#E07A5F;fontColor=#393C56;rounded=0;" parent="Cwrk3HHggUScsCenRlc8-89" vertex="1">
          <mxGeometry y="50" width="229.99999999999977" height="30" as="geometry" />
        </mxCell>
        <mxCell id="Cwrk3HHggUScsCenRlc8-94" value="" style="shape=partialRectangle;connectable=0;fillColor=none;top=0;left=0;bottom=0;right=0;fontStyle=1;overflow=hidden;html=1;whiteSpace=wrap;labelBackgroundColor=none;strokeColor=#E07A5F;fontColor=#393C56;rounded=0;" parent="Cwrk3HHggUScsCenRlc8-93" vertex="1">
          <mxGeometry width="60" height="30" as="geometry">
            <mxRectangle width="60" height="30" as="alternateBounds" />
          </mxGeometry>
        </mxCell>
        <mxCell id="Cwrk3HHggUScsCenRlc8-95" value="&lt;span style=&quot;font-weight: normal;&quot;&gt;movie_id varchar(12)&lt;/span&gt;" style="shape=partialRectangle;connectable=0;fillColor=none;top=0;left=0;bottom=0;right=0;align=left;spacingLeft=6;fontStyle=1;overflow=hidden;html=1;whiteSpace=wrap;labelBackgroundColor=none;strokeColor=#E07A5F;fontColor=#393C56;rounded=0;" parent="Cwrk3HHggUScsCenRlc8-93" vertex="1">
          <mxGeometry x="60" width="169.99999999999977" height="30" as="geometry">
            <mxRectangle width="169.99999999999977" height="30" as="alternateBounds" />
          </mxGeometry>
        </mxCell>
        <mxCell id="Cwrk3HHggUScsCenRlc8-96" value="OscarAward" style="shape=table;startSize=30;container=1;collapsible=1;childLayout=tableLayout;fixedRows=1;rowLines=0;fontStyle=1;align=center;resizeLast=1;labelBackgroundColor=none;fillColor=#F2CC8F;strokeColor=#E07A5F;fontColor=#393C56;rounded=0;" parent="1" vertex="1">
          <mxGeometry x="720" y="700" width="250" height="130" as="geometry" />
        </mxCell>
        <mxCell id="Cwrk3HHggUScsCenRlc8-106" value="" style="shape=tableRow;horizontal=0;startSize=0;swimlaneHead=0;swimlaneBody=0;fillColor=none;collapsible=0;dropTarget=0;points=[[0,0.5],[1,0.5]];portConstraint=eastwest;top=0;left=0;right=0;bottom=0;labelBackgroundColor=none;strokeColor=#E07A5F;fontColor=#393C56;rounded=0;" parent="Cwrk3HHggUScsCenRlc8-96" vertex="1">
          <mxGeometry y="30" width="250" height="20" as="geometry" />
        </mxCell>
        <mxCell id="Cwrk3HHggUScsCenRlc8-107" value="" style="shape=partialRectangle;connectable=0;fillColor=none;top=0;left=0;bottom=0;right=0;editable=1;overflow=hidden;fontStyle=1;labelBackgroundColor=none;strokeColor=#E07A5F;fontColor=#393C56;rounded=0;" parent="Cwrk3HHggUScsCenRlc8-106" vertex="1">
          <mxGeometry width="39" height="20" as="geometry">
            <mxRectangle width="39" height="20" as="alternateBounds" />
          </mxGeometry>
        </mxCell>
        <mxCell id="Cwrk3HHggUScsCenRlc8-108" value="year_ceremony int" style="shape=partialRectangle;connectable=0;fillColor=none;top=0;left=0;bottom=0;right=0;align=left;spacingLeft=6;overflow=hidden;fontStyle=0;labelBackgroundColor=none;strokeColor=#E07A5F;fontColor=#393C56;rounded=0;" parent="Cwrk3HHggUScsCenRlc8-106" vertex="1">
          <mxGeometry x="39" width="211" height="20" as="geometry">
            <mxRectangle width="211" height="20" as="alternateBounds" />
          </mxGeometry>
        </mxCell>
        <mxCell id="Cwrk3HHggUScsCenRlc8-97" value="" style="shape=partialRectangle;collapsible=0;dropTarget=0;pointerEvents=0;fillColor=none;points=[[0,0.5],[1,0.5]];portConstraint=eastwest;top=0;left=0;right=0;bottom=1;labelBackgroundColor=none;strokeColor=#E07A5F;fontColor=#393C56;rounded=0;" parent="Cwrk3HHggUScsCenRlc8-96" vertex="1">
          <mxGeometry y="50" width="250" height="30" as="geometry" />
        </mxCell>
        <mxCell id="Cwrk3HHggUScsCenRlc8-98" value="" style="shape=partialRectangle;overflow=hidden;connectable=0;fillColor=none;top=0;left=0;bottom=0;right=0;fontStyle=1;labelBackgroundColor=none;strokeColor=#E07A5F;fontColor=#393C56;rounded=0;" parent="Cwrk3HHggUScsCenRlc8-97" vertex="1">
          <mxGeometry width="39" height="30" as="geometry">
            <mxRectangle width="39" height="30" as="alternateBounds" />
          </mxGeometry>
        </mxCell>
        <mxCell id="Cwrk3HHggUScsCenRlc8-99" value="category varchar(255)" style="shape=partialRectangle;overflow=hidden;connectable=0;fillColor=none;top=0;left=0;bottom=0;right=0;align=left;spacingLeft=6;fontStyle=0;labelBackgroundColor=none;strokeColor=#E07A5F;fontColor=#393C56;rounded=0;" parent="Cwrk3HHggUScsCenRlc8-97" vertex="1">
          <mxGeometry x="39" width="211" height="30" as="geometry">
            <mxRectangle width="211" height="30" as="alternateBounds" />
          </mxGeometry>
        </mxCell>
        <mxCell id="Cwrk3HHggUScsCenRlc8-100" value="" style="shape=tableRow;horizontal=0;startSize=0;swimlaneHead=0;swimlaneBody=0;fillColor=none;collapsible=0;dropTarget=0;points=[[0,0.5],[1,0.5]];portConstraint=eastwest;top=0;left=0;right=0;bottom=0;labelBackgroundColor=none;strokeColor=#E07A5F;fontColor=#393C56;rounded=0;" parent="Cwrk3HHggUScsCenRlc8-96" vertex="1">
          <mxGeometry y="80" width="250" height="20" as="geometry" />
        </mxCell>
        <mxCell id="Cwrk3HHggUScsCenRlc8-101" value="" style="shape=partialRectangle;connectable=0;fillColor=none;top=0;left=0;bottom=0;right=0;editable=1;overflow=hidden;labelBackgroundColor=none;strokeColor=#E07A5F;fontColor=#393C56;rounded=0;" parent="Cwrk3HHggUScsCenRlc8-100" vertex="1">
          <mxGeometry width="39" height="20" as="geometry">
            <mxRectangle width="39" height="20" as="alternateBounds" />
          </mxGeometry>
        </mxCell>
        <mxCell id="Cwrk3HHggUScsCenRlc8-102" value="award_name varchar(255)" style="shape=partialRectangle;connectable=0;fillColor=none;top=0;left=0;bottom=0;right=0;align=left;spacingLeft=6;overflow=hidden;verticalAlign=top;labelBackgroundColor=none;strokeColor=#E07A5F;fontColor=#393C56;rounded=0;" parent="Cwrk3HHggUScsCenRlc8-100" vertex="1">
          <mxGeometry x="39" width="211" height="20" as="geometry">
            <mxRectangle width="211" height="20" as="alternateBounds" />
          </mxGeometry>
        </mxCell>
        <mxCell id="Cwrk3HHggUScsCenRlc8-111" value="" style="shape=tableRow;horizontal=0;startSize=0;swimlaneHead=0;swimlaneBody=0;fillColor=none;collapsible=0;dropTarget=0;points=[[0,0.5],[1,0.5]];portConstraint=eastwest;top=0;left=0;right=0;bottom=0;labelBackgroundColor=none;strokeColor=#E07A5F;fontColor=#393C56;rounded=0;" parent="Cwrk3HHggUScsCenRlc8-96" vertex="1">
          <mxGeometry y="100" width="250" height="30" as="geometry" />
        </mxCell>
        <mxCell id="Cwrk3HHggUScsCenRlc8-112" value="" style="shape=partialRectangle;connectable=0;fillColor=none;top=0;left=0;bottom=0;right=0;editable=1;overflow=hidden;labelBackgroundColor=none;strokeColor=#E07A5F;fontColor=#393C56;rounded=0;" parent="Cwrk3HHggUScsCenRlc8-111" vertex="1">
          <mxGeometry width="39" height="30" as="geometry">
            <mxRectangle width="39" height="30" as="alternateBounds" />
          </mxGeometry>
        </mxCell>
        <mxCell id="Cwrk3HHggUScsCenRlc8-113" value="movie_id varchar(12)" style="shape=partialRectangle;connectable=0;fillColor=none;top=0;left=0;bottom=0;right=0;align=left;spacingLeft=6;overflow=hidden;labelBackgroundColor=none;strokeColor=#E07A5F;fontColor=#393C56;rounded=0;" parent="Cwrk3HHggUScsCenRlc8-111" vertex="1">
          <mxGeometry x="39" width="211" height="30" as="geometry">
            <mxRectangle width="211" height="30" as="alternateBounds" />
          </mxGeometry>
        </mxCell>
        <mxCell id="Cwrk3HHggUScsCenRlc8-114" value="UserRating" style="shape=table;startSize=30;container=1;collapsible=1;childLayout=tableLayout;fixedRows=1;rowLines=0;fontStyle=1;align=center;resizeLast=1;labelBackgroundColor=none;fillColor=#F2CC8F;strokeColor=#E07A5F;fontColor=#393C56;rounded=0;" parent="1" vertex="1">
          <mxGeometry x="200" y="170" width="250" height="110" as="geometry" />
        </mxCell>
        <mxCell id="Cwrk3HHggUScsCenRlc8-121" value="" style="shape=tableRow;horizontal=0;startSize=0;swimlaneHead=0;swimlaneBody=0;fillColor=none;collapsible=0;dropTarget=0;points=[[0,0.5],[1,0.5]];portConstraint=eastwest;top=0;left=0;right=0;bottom=0;labelBackgroundColor=none;strokeColor=#E07A5F;fontColor=#393C56;rounded=0;" parent="Cwrk3HHggUScsCenRlc8-114" vertex="1">
          <mxGeometry y="30" width="250" height="50" as="geometry" />
        </mxCell>
        <mxCell id="Cwrk3HHggUScsCenRlc8-122" value="" style="shape=partialRectangle;connectable=0;fillColor=none;top=0;left=0;bottom=0;right=0;editable=1;overflow=hidden;labelBackgroundColor=none;strokeColor=#E07A5F;fontColor=#393C56;rounded=0;" parent="Cwrk3HHggUScsCenRlc8-121" vertex="1">
          <mxGeometry width="40" height="50" as="geometry">
            <mxRectangle width="40" height="50" as="alternateBounds" />
          </mxGeometry>
        </mxCell>
        <mxCell id="Cwrk3HHggUScsCenRlc8-123" value="rating_id bigserial&#xa;&#xa;rating float" style="shape=partialRectangle;connectable=0;fillColor=none;top=0;left=0;bottom=0;right=0;align=left;spacingLeft=6;overflow=hidden;verticalAlign=top;labelBackgroundColor=none;strokeColor=#E07A5F;fontColor=#393C56;rounded=0;" parent="Cwrk3HHggUScsCenRlc8-121" vertex="1">
          <mxGeometry x="40" width="210" height="50" as="geometry">
            <mxRectangle width="210" height="50" as="alternateBounds" />
          </mxGeometry>
        </mxCell>
        <mxCell id="Cwrk3HHggUScsCenRlc8-124" value="" style="shape=tableRow;horizontal=0;startSize=0;swimlaneHead=0;swimlaneBody=0;fillColor=none;collapsible=0;dropTarget=0;points=[[0,0.5],[1,0.5]];portConstraint=eastwest;top=0;left=0;right=0;bottom=0;labelBackgroundColor=none;strokeColor=#E07A5F;fontColor=#393C56;rounded=0;" parent="Cwrk3HHggUScsCenRlc8-114" vertex="1">
          <mxGeometry y="80" width="250" height="30" as="geometry" />
        </mxCell>
        <mxCell id="Cwrk3HHggUScsCenRlc8-125" value="" style="shape=partialRectangle;connectable=0;fillColor=none;top=0;left=0;bottom=0;right=0;editable=1;overflow=hidden;labelBackgroundColor=none;strokeColor=#E07A5F;fontColor=#393C56;rounded=0;" parent="Cwrk3HHggUScsCenRlc8-124" vertex="1">
          <mxGeometry width="40" height="30" as="geometry">
            <mxRectangle width="40" height="30" as="alternateBounds" />
          </mxGeometry>
        </mxCell>
        <mxCell id="Cwrk3HHggUScsCenRlc8-126" value="movie_id varchar(12)" style="shape=partialRectangle;connectable=0;fillColor=none;top=0;left=0;bottom=0;right=0;align=left;spacingLeft=6;overflow=hidden;labelBackgroundColor=none;strokeColor=#E07A5F;fontColor=#393C56;rounded=0;" parent="Cwrk3HHggUScsCenRlc8-124" vertex="1">
          <mxGeometry x="40" width="210" height="30" as="geometry">
            <mxRectangle width="210" height="30" as="alternateBounds" />
          </mxGeometry>
        </mxCell>
        <mxCell id="Cwrk3HHggUScsCenRlc8-135" value="" style="fontSize=12;html=1;endArrow=ERzeroToMany;rounded=0;entryX=0.5;entryY=0;entryDx=0;entryDy=0;exitX=0.556;exitY=0.992;exitDx=0;exitDy=0;exitPerimeter=0;endFill=0;" parent="1" source="Cwrk3HHggUScsCenRlc8-16" target="Cwrk3HHggUScsCenRlc8-19" edge="1">
          <mxGeometry width="100" height="100" relative="1" as="geometry">
            <mxPoint x="30" y="307" as="sourcePoint" />
            <mxPoint x="160" y="310" as="targetPoint" />
          </mxGeometry>
        </mxCell>
        <mxCell id="Cwrk3HHggUScsCenRlc8-139" value="" style="fontSize=12;html=1;endArrow=ERzeroToMany;rounded=0;entryX=0;entryY=0.5;entryDx=0;entryDy=0;endFill=0;" parent="1" source="Cwrk3HHggUScsCenRlc8-2" target="Cwrk3HHggUScsCenRlc8-59" edge="1">
          <mxGeometry width="100" height="100" relative="1" as="geometry">
            <mxPoint x="425" y="400" as="sourcePoint" />
            <mxPoint x="434" y="290" as="targetPoint" />
          </mxGeometry>
        </mxCell>
        <mxCell id="Cwrk3HHggUScsCenRlc8-140" value="" style="fontSize=12;html=1;endArrow=ERzeroToMany;rounded=0;endFill=0;" parent="1" source="Cwrk3HHggUScsCenRlc8-42" target="Cwrk3HHggUScsCenRlc8-58" edge="1">
          <mxGeometry width="100" height="100" relative="1" as="geometry">
            <mxPoint x="435" y="410" as="sourcePoint" />
            <mxPoint x="444" y="300" as="targetPoint" />
          </mxGeometry>
        </mxCell>
        <mxCell id="Cwrk3HHggUScsCenRlc8-141" value="" style="fontSize=12;html=1;endArrow=none;startArrow=ERzeroToMany;rounded=0;exitX=0.381;exitY=-0.005;exitDx=0;exitDy=0;exitPerimeter=0;startFill=0;endFill=0;" parent="1" source="Cwrk3HHggUScsCenRlc8-89" target="Cwrk3HHggUScsCenRlc8-2" edge="1">
          <mxGeometry width="100" height="100" relative="1" as="geometry">
            <mxPoint x="380" y="730" as="sourcePoint" />
            <mxPoint x="480" y="630" as="targetPoint" />
          </mxGeometry>
        </mxCell>
        <mxCell id="Cwrk3HHggUScsCenRlc8-142" value="" style="fontSize=12;html=1;endArrow=ERzeroToMany;rounded=0;exitX=0.5;exitY=0;exitDx=0;exitDy=0;endFill=0;" parent="1" source="Cwrk3HHggUScsCenRlc8-65" target="Cwrk3HHggUScsCenRlc8-82" edge="1">
          <mxGeometry width="100" height="100" relative="1" as="geometry">
            <mxPoint x="110" y="700" as="sourcePoint" />
            <mxPoint x="210" y="600" as="targetPoint" />
          </mxGeometry>
        </mxCell>
        <mxCell id="Cwrk3HHggUScsCenRlc8-144" value="" style="fontSize=12;html=1;endArrow=ERzeroToMany;rounded=0;exitX=-0.01;exitY=0.665;exitDx=0;exitDy=0;exitPerimeter=0;entryX=1.001;entryY=0.104;entryDx=0;entryDy=0;entryPerimeter=0;endFill=0;" parent="1" source="Cwrk3HHggUScsCenRlc8-2" target="Cwrk3HHggUScsCenRlc8-78" edge="1">
          <mxGeometry width="100" height="100" relative="1" as="geometry">
            <mxPoint x="10" y="770" as="sourcePoint" />
            <mxPoint x="35" y="700" as="targetPoint" />
          </mxGeometry>
        </mxCell>
        <mxCell id="Cwrk3HHggUScsCenRlc8-145" value="" style="fontSize=12;html=1;endArrow=ERzeroToMany;rounded=0;endFill=0;" parent="1" source="Cwrk3HHggUScsCenRlc8-2" target="Cwrk3HHggUScsCenRlc8-96" edge="1">
          <mxGeometry width="100" height="100" relative="1" as="geometry">
            <mxPoint x="550" y="515" as="sourcePoint" />
            <mxPoint x="720" y="475" as="targetPoint" />
          </mxGeometry>
        </mxCell>
        <mxCell id="xFVvGFepDBb_Ydmy9TsE-13" value="" style="fontSize=12;html=1;endArrow=ERzeroToMany;endFill=1;rounded=0;entryX=0.075;entryY=1.084;entryDx=0;entryDy=0;entryPerimeter=0;exitX=0.836;exitY=0.004;exitDx=0;exitDy=0;exitPerimeter=0;" parent="1" source="C-vyLk0tnHw3VtMMgP7b-2" target="xFVvGFepDBb_Ydmy9TsE-8" edge="1">
          <mxGeometry width="100" height="100" relative="1" as="geometry">
            <mxPoint x="460" y="350" as="sourcePoint" />
            <mxPoint x="540" y="290" as="targetPoint" />
          </mxGeometry>
        </mxCell>
        <mxCell id="xFVvGFepDBb_Ydmy9TsE-15" value="" style="fontSize=12;html=1;endArrow=ERzeroToMany;endFill=1;rounded=0;entryX=0.72;entryY=1;entryDx=0;entryDy=0;entryPerimeter=0;exitX=0.836;exitY=0.004;exitDx=0;exitDy=0;exitPerimeter=0;" parent="1" target="Cwrk3HHggUScsCenRlc8-124" edge="1">
          <mxGeometry width="100" height="100" relative="1" as="geometry">
            <mxPoint x="420" y="390" as="sourcePoint" />
            <mxPoint x="461" y="289" as="targetPoint" />
          </mxGeometry>
        </mxCell>
        <mxCell id="xFVvGFepDBb_Ydmy9TsE-16" value="" style="fontSize=12;html=1;endArrow=ERzeroToMany;endFill=1;rounded=0;entryX=0.72;entryY=1;entryDx=0;entryDy=0;entryPerimeter=0;exitX=0.004;exitY=0.247;exitDx=0;exitDy=0;exitPerimeter=0;" parent="1" source="Cwrk3HHggUScsCenRlc8-2" edge="1">
          <mxGeometry width="100" height="100" relative="1" as="geometry">
            <mxPoint x="180" y="580" as="sourcePoint" />
            <mxPoint x="140" y="470" as="targetPoint" />
          </mxGeometry>
        </mxCell>
        <mxCell id="xFVvGFepDBb_Ydmy9TsE-1" value="CriticReview" style="shape=table;startSize=30;container=1;collapsible=1;childLayout=tableLayout;fixedRows=1;rowLines=0;fontStyle=1;align=center;resizeLast=1;labelBackgroundColor=none;fillColor=#F2CC8F;strokeColor=#E07A5F;fontColor=#393C56;rounded=0;" parent="1" vertex="1">
          <mxGeometry x="530" y="40" width="250" height="240" as="geometry" />
        </mxCell>
        <mxCell id="xFVvGFepDBb_Ydmy9TsE-5" value="" style="shape=tableRow;horizontal=0;startSize=0;swimlaneHead=0;swimlaneBody=0;fillColor=none;collapsible=0;dropTarget=0;points=[[0,0.5],[1,0.5]];portConstraint=eastwest;top=0;left=0;right=0;bottom=0;labelBackgroundColor=none;strokeColor=#E07A5F;fontColor=#393C56;rounded=0;" parent="xFVvGFepDBb_Ydmy9TsE-1" vertex="1">
          <mxGeometry y="30" width="250" height="180" as="geometry" />
        </mxCell>
        <mxCell id="xFVvGFepDBb_Ydmy9TsE-6" value="" style="shape=partialRectangle;connectable=0;fillColor=none;top=0;left=0;bottom=0;right=0;editable=1;overflow=hidden;labelBackgroundColor=none;strokeColor=#E07A5F;fontColor=#393C56;rounded=0;" parent="xFVvGFepDBb_Ydmy9TsE-5" vertex="1">
          <mxGeometry width="40" height="180" as="geometry">
            <mxRectangle width="40" height="180" as="alternateBounds" />
          </mxGeometry>
        </mxCell>
        <mxCell id="xFVvGFepDBb_Ydmy9TsE-7" value="critic_id bigserial&#xa;&#xa;publisher varchar(255)&#xa;&#xa;critic_name varchar(255)&#xa;&#xa;content varchar(1024)&#xa;&#xa;review_date date&#xa;&#xa;score varchar(255)" style="shape=partialRectangle;connectable=0;fillColor=none;top=0;left=0;bottom=0;right=0;align=left;spacingLeft=6;overflow=hidden;verticalAlign=top;labelBackgroundColor=none;strokeColor=#E07A5F;fontColor=#393C56;rounded=0;" parent="xFVvGFepDBb_Ydmy9TsE-5" vertex="1">
          <mxGeometry x="40" width="210" height="180" as="geometry">
            <mxRectangle width="210" height="180" as="alternateBounds" />
          </mxGeometry>
        </mxCell>
        <mxCell id="xFVvGFepDBb_Ydmy9TsE-8" value="" style="shape=tableRow;horizontal=0;startSize=0;swimlaneHead=0;swimlaneBody=0;fillColor=none;collapsible=0;dropTarget=0;points=[[0,0.5],[1,0.5]];portConstraint=eastwest;top=0;left=0;right=0;bottom=0;labelBackgroundColor=none;strokeColor=#E07A5F;fontColor=#393C56;rounded=0;" parent="xFVvGFepDBb_Ydmy9TsE-1" vertex="1">
          <mxGeometry y="210" width="250" height="30" as="geometry" />
        </mxCell>
        <mxCell id="xFVvGFepDBb_Ydmy9TsE-9" value="" style="shape=partialRectangle;connectable=0;fillColor=none;top=0;left=0;bottom=0;right=0;editable=1;overflow=hidden;labelBackgroundColor=none;strokeColor=#E07A5F;fontColor=#393C56;rounded=0;" parent="xFVvGFepDBb_Ydmy9TsE-8" vertex="1">
          <mxGeometry width="40" height="30" as="geometry">
            <mxRectangle width="40" height="30" as="alternateBounds" />
          </mxGeometry>
        </mxCell>
        <mxCell id="xFVvGFepDBb_Ydmy9TsE-10" value="movie_id char(9)&#xa;&#xa;&#xa;&#xa;" style="shape=partialRectangle;connectable=0;fillColor=none;top=0;left=0;bottom=0;right=0;align=left;spacingLeft=6;overflow=hidden;labelBackgroundColor=none;strokeColor=#E07A5F;fontColor=#393C56;rounded=0;" parent="xFVvGFepDBb_Ydmy9TsE-8" vertex="1">
          <mxGeometry x="40" width="210" height="30" as="geometry">
            <mxRectangle width="210" height="30" as="alternateBounds" />
          </mxGeometry>
        </mxCell>
        <mxCell id="CUDV-xlW5uoXPl146dnn-1" value="EnergyScore" style="shape=table;startSize=30;container=1;collapsible=1;childLayout=tableLayout;fixedRows=1;rowLines=0;fontStyle=1;align=center;resizeLast=1;html=1;whiteSpace=wrap;labelBackgroundColor=none;fillColor=#F2CC8F;strokeColor=#E07A5F;fontColor=#393C56;rounded=0;" vertex="1" parent="1">
          <mxGeometry x="110" y="860" width="230" height="170.00000000000045" as="geometry" />
        </mxCell>
        <mxCell id="CUDV-xlW5uoXPl146dnn-2" value="" style="shape=tableRow;horizontal=0;startSize=0;swimlaneHead=0;swimlaneBody=0;fillColor=none;collapsible=0;dropTarget=0;points=[[0,0.5],[1,0.5]];portConstraint=eastwest;top=0;left=0;right=0;bottom=0;html=1;labelBackgroundColor=none;strokeColor=#E07A5F;fontColor=#393C56;rounded=0;" vertex="1" parent="CUDV-xlW5uoXPl146dnn-1">
          <mxGeometry y="30" width="230" height="20" as="geometry" />
        </mxCell>
        <mxCell id="CUDV-xlW5uoXPl146dnn-3" value="" style="shape=partialRectangle;connectable=0;fillColor=none;top=0;left=0;bottom=0;right=0;fontStyle=1;overflow=hidden;html=1;whiteSpace=wrap;labelBackgroundColor=none;strokeColor=#E07A5F;fontColor=#393C56;rounded=0;" vertex="1" parent="CUDV-xlW5uoXPl146dnn-2">
          <mxGeometry width="60" height="20" as="geometry">
            <mxRectangle width="60" height="20" as="alternateBounds" />
          </mxGeometry>
        </mxCell>
        <mxCell id="CUDV-xlW5uoXPl146dnn-4" value="&lt;span style=&quot;font-weight: 400;&quot;&gt;humor int&lt;/span&gt;" style="shape=partialRectangle;connectable=0;fillColor=none;top=0;left=0;bottom=0;right=0;align=left;spacingLeft=6;fontStyle=1;overflow=hidden;html=1;whiteSpace=wrap;labelBackgroundColor=none;strokeColor=#E07A5F;fontColor=#393C56;rounded=0;" vertex="1" parent="CUDV-xlW5uoXPl146dnn-2">
          <mxGeometry x="60" width="170" height="20" as="geometry">
            <mxRectangle width="170" height="20" as="alternateBounds" />
          </mxGeometry>
        </mxCell>
        <mxCell id="CUDV-xlW5uoXPl146dnn-5" value="" style="shape=tableRow;horizontal=0;startSize=0;swimlaneHead=0;swimlaneBody=0;fillColor=none;collapsible=0;dropTarget=0;points=[[0,0.5],[1,0.5]];portConstraint=eastwest;top=0;left=0;right=0;bottom=1;html=1;labelBackgroundColor=none;strokeColor=#E07A5F;fontColor=#393C56;rounded=0;" vertex="1" parent="CUDV-xlW5uoXPl146dnn-1">
          <mxGeometry y="50" width="230" height="120" as="geometry" />
        </mxCell>
        <mxCell id="CUDV-xlW5uoXPl146dnn-6" value="" style="shape=partialRectangle;connectable=0;fillColor=none;top=0;left=0;bottom=0;right=0;fontStyle=1;overflow=hidden;html=1;whiteSpace=wrap;labelBackgroundColor=none;strokeColor=#E07A5F;fontColor=#393C56;rounded=0;" vertex="1" parent="CUDV-xlW5uoXPl146dnn-5">
          <mxGeometry width="60" height="120" as="geometry">
            <mxRectangle width="60" height="120" as="alternateBounds" />
          </mxGeometry>
        </mxCell>
        <mxCell id="CUDV-xlW5uoXPl146dnn-7" value="&lt;div&gt;&lt;span style=&quot;font-weight: 400; background-color: transparent; color: light-dark(rgb(57, 60, 86), rgb(182, 184, 207));&quot;&gt;rhythm int&lt;/span&gt;&lt;/div&gt;&lt;div&gt;&lt;span style=&quot;font-weight: 400;&quot;&gt;&lt;br&gt;&lt;/span&gt;&lt;/div&gt;&lt;div&gt;&lt;span style=&quot;font-weight: 400;&quot;&gt;tension int&lt;/span&gt;&lt;/div&gt;&lt;div&gt;&lt;br&gt;&lt;/div&gt;&lt;div&gt;&lt;span style=&quot;font-weight: 400;&quot;&gt;effort int&lt;/span&gt;&lt;/div&gt;&lt;div&gt;&lt;span style=&quot;font-weight: 400;&quot;&gt;&lt;br&gt;&lt;/span&gt;&lt;/div&gt;&lt;div&gt;&lt;span style=&quot;font-weight: 400;&quot;&gt;movie_id varchar(12)&lt;/span&gt;&lt;/div&gt;&lt;div&gt;&lt;span style=&quot;font-weight: 400;&quot;&gt;&lt;br&gt;&lt;/span&gt;&lt;/div&gt;" style="shape=partialRectangle;connectable=0;fillColor=none;top=0;left=0;bottom=0;right=0;align=left;spacingLeft=6;fontStyle=1;overflow=hidden;html=1;whiteSpace=wrap;labelBackgroundColor=none;strokeColor=#E07A5F;fontColor=#393C56;rounded=0;" vertex="1" parent="CUDV-xlW5uoXPl146dnn-5">
          <mxGeometry x="60" width="170" height="120" as="geometry">
            <mxRectangle width="170" height="120" as="alternateBounds" />
          </mxGeometry>
        </mxCell>
        <mxCell id="CUDV-xlW5uoXPl146dnn-8" value="" style="fontSize=12;html=1;endArrow=none;startArrow=oval;rounded=0;startFill=0;endFill=0;entryX=0.2;entryY=0.993;entryDx=0;entryDy=0;entryPerimeter=0;strokeColor=default;exitX=0.75;exitY=0;exitDx=0;exitDy=0;" edge="1" parent="1" source="CUDV-xlW5uoXPl146dnn-1" target="Cwrk3HHggUScsCenRlc8-2">
          <mxGeometry width="100" height="100" relative="1" as="geometry">
            <mxPoint x="274" y="860" as="sourcePoint" />
            <mxPoint x="479" y="720" as="targetPoint" />
          </mxGeometry>
        </mxCell>
      </root>
    </mxGraphModel>
  </diagram>
</mxfile>
